<svg xmlns="http://www.w3.org/2000/svg" xmlns:xlink="http://www.w3.org/1999/xlink" viewBox="0 0 354.91 66.43"><defs><style>.cls-1{fill:none;}.cls-2{fill:#f39a24;}.cls-3{clip-path:url(#clip-path);}.cls-4{fill:#f6b441;}.cls-5{fill:#3d3a39;}</style><clipPath id="clip-path"><rect class="cls-1" width="66.43" height="66.42"/></clipPath></defs><title>アセット 1</title><g id="レイヤー_2" data-name="レイヤー 2"><g id="レイヤー_1-2" data-name="レイヤー 1"><rect class="cls-2" width="66.43" height="66.42"/><g class="cls-3"><rect class="cls-4" x="49.85" width="16.6" height="66.42"/></g><polygon class="cls-5" points="91.92 29.77 79.27 29.77 79.27 27.23 87.82 16.77 79.55 16.77 79.55 14.21 91.65 14.21 91.65 16.83 83.31 27.23 91.92 27.23 91.92 29.77"/><path class="cls-5" d="M109,22.7H97.64v.25a5.55,5.55,0,0,0,1,3.43,3.75,3.75,0,0,0,3.15,1.48,3.33,3.33,0,0,0,3.64-3.21h3.46a5.92,5.92,0,0,1-2.5,4.17,8.2,8.2,0,0,1-4.72,1.26A7.38,7.38,0,0,1,96,27.94a8.08,8.08,0,0,1-1.91-5.71,8.91,8.91,0,0,1,1.91-6,7.32,7.32,0,0,1,5.83-2.38q7.1,0,7.1,8.86m-3.49-2.19a4.9,4.9,0,0,0-.9-3.06,3.23,3.23,0,0,0-2.79-1.33,3.66,3.66,0,0,0-2.95,1.33A5.45,5.45,0,0,0,97.7,20.5Z"/><path class="cls-5" d="M121.56,17.35a9.21,9.21,0,0,0-1.36-.12q-4.14,0-4.14,4.6v7.93h-3.58q.06-7.59,0-11l-.09-4.6h3.49l.09,2.56a5.11,5.11,0,0,1,4.75-2.69,6.39,6.39,0,0,1,.83.06Z"/><path class="cls-5" d="M139.25,21.89a8.13,8.13,0,0,1-2.19,5.93,8.87,8.87,0,0,1-11.78,0,8.21,8.21,0,0,1-2.15-6A8,8,0,0,1,125.34,16a8,8,0,0,1,5.91-2.21A7.83,7.83,0,0,1,137.12,16a8.09,8.09,0,0,1,2.13,5.91m-3.73,0a7.33,7.33,0,0,0-1-3.92,3.71,3.71,0,0,0-3.37-1.85A3.67,3.67,0,0,0,127.83,18a7.23,7.23,0,0,0-1,3.92,7.76,7.76,0,0,0,.93,4,3.74,3.74,0,0,0,3.4,1.95,3.67,3.67,0,0,0,3.37-1.95,7.65,7.65,0,0,0,1-4"/><path class="cls-5" d="M160.27,29.73a23.36,23.36,0,0,1-2.84.19,5.34,5.34,0,0,1-3.21-.77,3.72,3.72,0,0,1-1.14-3.06V16.61h-3V14.17h3V11.37l3.58-1.45v4.26h3.55v2.44h-3.55v8.15a4.2,4.2,0,0,0,.31,2,2.12,2.12,0,0,0,1.82.62,5.08,5.08,0,0,0,.71-.06,5.55,5.55,0,0,1,.77-.09Z"/><path class="cls-5" d="M178.3,21.89a8.13,8.13,0,0,1-2.19,5.93,8.87,8.87,0,0,1-11.78,0,8.21,8.21,0,0,1-2.15-6A8,8,0,0,1,164.39,16a8,8,0,0,1,5.91-2.21A7.83,7.83,0,0,1,176.17,16a8.09,8.09,0,0,1,2.13,5.91m-3.73,0a7.33,7.33,0,0,0-1-3.92,3.71,3.71,0,0,0-3.37-1.85A3.67,3.67,0,0,0,166.88,18a7.23,7.23,0,0,0-1,3.92,7.76,7.76,0,0,0,.93,4,3.74,3.74,0,0,0,3.4,1.95,3.67,3.67,0,0,0,3.37-1.95,7.65,7.65,0,0,0,1-4"/><path class="cls-5" d="M206.15,21.89A8.13,8.13,0,0,1,204,27.82a8.87,8.87,0,0,1-11.78,0,8.21,8.21,0,0,1-2.15-6A8,8,0,0,1,192.24,16a8,8,0,0,1,5.91-2.21A7.83,7.83,0,0,1,204,16a8.09,8.09,0,0,1,2.13,5.91m-3.74,0a7.32,7.32,0,0,0-1-3.92,3.71,3.71,0,0,0-3.37-1.85A3.67,3.67,0,0,0,194.72,18a7.23,7.23,0,0,0-1,3.92,7.76,7.76,0,0,0,.93,4,3.74,3.74,0,0,0,3.4,1.95,3.67,3.67,0,0,0,3.37-1.95,7.64,7.64,0,0,0,1-4"/><path class="cls-5" d="M223.93,29.77h-3.58V21.31a7.9,7.9,0,0,0-.5-3.3,2.76,2.76,0,0,0-2.76-1.48q-3.84,0-3.84,5.71v7.53h-3.58V17.63q0-1-.06-3.43h3.52l.06,2.35A6.12,6.12,0,0,1,218.29,14q5.63,0,5.64,5.93Z"/><path class="cls-5" d="M242.29,22.7H231v.25a5.54,5.54,0,0,0,1,3.43,3.75,3.75,0,0,0,3.15,1.48,3.33,3.33,0,0,0,3.64-3.21h3.46a5.92,5.92,0,0,1-2.5,4.17A8.2,8.2,0,0,1,235,30.07a7.38,7.38,0,0,1-5.65-2.13,8.07,8.07,0,0,1-1.91-5.71,8.9,8.9,0,0,1,1.91-6,7.32,7.32,0,0,1,5.83-2.38q7.1,0,7.1,8.86m-3.49-2.19a4.89,4.89,0,0,0-.9-3.06,3.23,3.23,0,0,0-2.79-1.33,3.66,3.66,0,0,0-2.95,1.33A5.46,5.46,0,0,0,231,20.5Z"/><path class="cls-5" d="M270.45,21.74a9.36,9.36,0,0,1-1.7,5.74A6.17,6.17,0,0,1,263.48,30a5.84,5.84,0,0,1-4.83-2.38V35.6h-3.58V18.34q0-2.13-.09-4.14h3.49l.09,2.47a5.8,5.8,0,0,1,5.2-2.81,6,6,0,0,1,5.08,2.38,8.87,8.87,0,0,1,1.61,5.49m-3.67.18a7.78,7.78,0,0,0-.84-3.8,3.35,3.35,0,0,0-3.13-1.88,3.62,3.62,0,0,0-3.31,1.88,7.7,7.7,0,0,0-.9,3.92,7.91,7.91,0,0,0,.81,3.8,3.34,3.34,0,0,0,3.13,1.88,3.65,3.65,0,0,0,3.35-1.88,7.61,7.61,0,0,0,.9-3.92"/><path class="cls-5" d="M283.08,17.35a9.21,9.21,0,0,0-1.36-.12q-4.14,0-4.14,4.6v7.93H274q.06-7.59,0-11l-.09-4.6h3.49l.09,2.56a5.11,5.11,0,0,1,4.75-2.69,6.41,6.41,0,0,1,.83.06Z"/><path class="cls-5" d="M300.76,21.89a8.13,8.13,0,0,1-2.19,5.93,8.87,8.87,0,0,1-11.78,0,8.21,8.21,0,0,1-2.15-6A7.94,7.94,0,0,1,286.86,16a8,8,0,0,1,5.91-2.21A7.83,7.83,0,0,1,298.63,16a8.09,8.09,0,0,1,2.13,5.91m-3.73,0a7.34,7.34,0,0,0-1-3.92,3.71,3.71,0,0,0-3.37-1.85A3.67,3.67,0,0,0,289.34,18a7.22,7.22,0,0,0-1,3.92,7.76,7.76,0,0,0,.93,4,3.74,3.74,0,0,0,3.4,1.95,3.67,3.67,0,0,0,3.37-1.95,7.66,7.66,0,0,0,1-4"/><path class="cls-5" d="M307.89,31.43q0,2.47-1.14,3.36a5.92,5.92,0,0,1-3.52.77l-1.73-.09V32.94c.48,0,.83.06,1.08.06q1.17,0,1.51-.65a4.62,4.62,0,0,0,.22-1.76V14.18h3.58ZM308,10.63h-3.83V7.45H308Z"/><path class="cls-5" d="M326.26,22.7H314.93v.25a5.54,5.54,0,0,0,1,3.43,3.75,3.75,0,0,0,3.15,1.48,3.33,3.33,0,0,0,3.64-3.21h3.46a5.91,5.91,0,0,1-2.5,4.17A8.2,8.2,0,0,1,319,30.07a7.39,7.39,0,0,1-5.65-2.13,8.08,8.08,0,0,1-1.91-5.71,8.91,8.91,0,0,1,1.91-6,7.32,7.32,0,0,1,5.83-2.38q7.1,0,7.1,8.86m-3.49-2.19a4.9,4.9,0,0,0-.9-3.06,3.23,3.23,0,0,0-2.79-1.33,3.66,3.66,0,0,0-2.94,1.33A5.44,5.44,0,0,0,315,20.5Z"/><path class="cls-5" d="M343.55,24.24a5.47,5.47,0,0,1-2.1,4.41,7.88,7.88,0,0,1-5,1.48,7.59,7.59,0,0,1-5.8-2.19,8.25,8.25,0,0,1-2-5.83A8.61,8.61,0,0,1,330.82,16a7.59,7.59,0,0,1,5.88-2.3,7.51,7.51,0,0,1,4.66,1.36,5.84,5.84,0,0,1,2.13,4.29H340q-.19-3.33-3.27-3.33A3.6,3.6,0,0,0,333.33,18a7.79,7.79,0,0,0-.89,4,7.86,7.86,0,0,0,.89,3.92,3.49,3.49,0,0,0,3.24,1.94,3.09,3.09,0,0,0,2.44-1,4.16,4.16,0,0,0,1-2.61Z"/><path class="cls-5" d="M354.91,29.73a23.39,23.39,0,0,1-2.84.19,5.33,5.33,0,0,1-3.21-.77,3.72,3.72,0,0,1-1.14-3.06V16.61h-3V14.17h3V11.37l3.58-1.45v4.26h3.55v2.44H351.3v8.15a4.21,4.21,0,0,0,.31,2,2.13,2.13,0,0,0,1.82.62,5.06,5.06,0,0,0,.71-.06,5.56,5.56,0,0,1,.77-.09Z"/><path class="cls-5" d="M126.85,51.08c0-5.91,2.3-8.77,5.45-8.77s5.16,3,5.16,8.54c0,5.86-2.05,8.88-5.41,8.88-3.06,0-5.21-3-5.21-8.65m8.72-.14c0-4.21-1-7.12-3.38-7.12-2,0-3.43,2.68-3.43,7.12s1.24,7.26,3.36,7.26c2.5,0,3.45-3.25,3.45-7.26"/><path class="cls-5" d="M148.72,42.37c0,.25-.29.35-.68.37-.23,1.15-.6,3.14-.84,4.37.92-.1,1.76-.19,2.28-.19,3.11,0,4.18,2,4.18,5.1a16,16,0,0,1-.7,4.59c-.64,2.09-1.95,3.09-3.65,3.09-.84,0-1.95-.35-3.71-1.78a7.67,7.67,0,0,0,.55-1.25c1.64,1.27,2.5,1.56,3.14,1.56,1.17,0,1.86-.74,2.27-2a15.44,15.44,0,0,0,.66-4.2c0-2.34-.78-3.73-2.83-3.71a23.59,23.59,0,0,0-2.5.2,39.26,39.26,0,0,1-4.2,11.07l-1.35-.65a33.51,33.51,0,0,0,4.08-10.25c-1,.12-2.54.31-3.65.49l-.12-1.43,4.06-.47c.31-1.5.63-3.34.88-5.14Zm9.49,9.86a12.3,12.3,0,0,0-4.61-7l1.11-.86a13.14,13.14,0,0,1,5,7.29Z"/><path class="cls-5" d="M165.42,45.79a.58.58,0,0,1-.53.35,23.41,23.41,0,0,1-.84,6h0a14,14,0,0,1,7.54-2.52c3.16,0,5.12,1.62,5.08,4.49-.06,3.77-3.18,5.45-11.11,5.78a6.07,6.07,0,0,0-.51-1.35c7.15-.31,10-1.48,10.08-4.41,0-2-1.35-3.15-3.75-3.15-3.79,0-7.21,2.28-7.79,3.28l-1.39-.68c.41-.39,1.13-4.06,1.17-8.07Zm.35-4a33,33,0,0,1,8,1.8L173.21,45a33.3,33.3,0,0,0-7.87-1.86Z"/><polygon class="cls-5" points="184.23 59.46 184.23 44.34 184.19 44.34 181.42 45.94 180.96 44.54 184.46 42.58 186.06 42.58 186.06 59.46 184.23 59.46"/><path class="cls-5" d="M209.17,50.16a.28.28,0,0,1-.12,0,.52.52,0,0,1-.31-.12c-1.56.51-3.83,1.35-5.53,2.09q.06.71.06,1.6c0,.66,0,1.39-.06,2.19l-1.5.08c.06-.74.1-1.68.1-2.48,0-.31,0-.59,0-.82-2.32,1.13-4.2,2.5-4.2,3.73s1.41,1.76,4.24,1.76A45.87,45.87,0,0,0,207,58l0,1.37c-1.21.12-3.05.16-5.16.16-3.93,0-5.68-.94-5.68-3,0-1.8,2.38-3.55,5.45-5.08-.12-1.29-.7-1.93-1.52-1.93-1.5,0-3.05.84-4.9,2.89-.57.64-1.37,1.43-2.25,2.23l-1-1a14.39,14.39,0,0,0,5.16-7.56l-1.15,0h-3.42V44.77c1.25,0,2.71,0,3.55,0l1.39,0a27,27,0,0,0,.55-2.93l2,.25c0,.2-.21.33-.51.37-.14.82-.33,1.54-.51,2.28a28,28,0,0,0,7-1.19l.25,1.37a30.86,30.86,0,0,1-7.68,1.15,15,15,0,0,1-1.48,3.46h0a5.45,5.45,0,0,1,3.3-1.33c1.39,0,2.27,1,2.54,2.66,1.72-.78,3.89-1.62,5.53-2.25Z"/><path class="cls-5" d="M221.41,58.39H230v1.35H211.49V58.39H220V52.9h-6.25V51.57H220V46.84h-5a16,16,0,0,1-2.46,3.79,8.11,8.11,0,0,0-1.15-.84,19.94,19.94,0,0,0,4-8l1.78.49c-.06.14-.21.22-.47.22-.31,1-.65,2-1.06,3H220v-4.1l1.84.1c0,.14-.15.25-.43.29v3.71H229v1.35h-7.64v4.73h6.88V52.9h-6.88Z"/><path class="cls-5" d="M248.74,47.31a.57.57,0,0,1-.59.37,41.1,41.1,0,0,1-.9,4.18c1.11.47,2.28,1,3.44,1.6L250,54.83c-1.11-.55-2.17-1.08-3.22-1.54a11.83,11.83,0,0,1-4.57,6.54,7.15,7.15,0,0,0-1.17-.86,10.86,10.86,0,0,0,4.43-6.27A20.4,20.4,0,0,0,240,51.18c-1.41,5.16-2.69,6.52-5.14,6.52s-2.93-2-2.93-3.22c0-3.18,3.3-4.65,7-4.67A49.18,49.18,0,0,0,240,44c-1,.08-4.24.31-5.8.41a.65.65,0,0,1-.43.29l-.18-1.66c1.76-.06,5.57-.31,6.8-.43a.78.78,0,0,0,.45-.22l1.27.76a.86.86,0,0,1-.51.33,64.71,64.71,0,0,1-1.27,6.39,21,21,0,0,1,5.51,1.46,33.61,33.61,0,0,0,.88-4.47ZM238.59,51.1c-3,0-5.31,1.21-5.31,3.38,0,1.15.55,1.93,1.52,1.93,1.5,0,2.48-.51,3.79-5.31"/><path class="cls-5" d="M268.39,51.84l1.82.12c0,.14-.12.25-.41.27v8.16h-1.41V59.09H255.07v1.35H253.7V51.84l1.8.1c0,.16-.14.27-.43.29v5.51h5.82V50.46h-6.41V43.37l1.8.12c0,.12-.14.22-.43.27v5.35h5V41.47l1.82.12c0,.14-.14.25-.41.29v7.23h5.25V43.35l1.82.12c0,.14-.12.24-.41.29v6.7H262.3v7.27h6.09Z"/><path class="cls-5" d="M282.79,44.77c0-.45-.08-2.69-.12-3.2l2.11.08c0,.16-.16.37-.53.43,0,.25,0,.49,0,2.64,2.52-.08,5.16-.14,6.7-.16V46c-1.74,0-4.22,0-6.66.08,0,1.6.08,3.07.14,4.2a7,7,0,0,1,.25,2.15,8.85,8.85,0,0,1-.21,2c-.53,2.4-2.29,4.51-5.9,5.94a11,11,0,0,0-1-1.17c3.14-1.13,4.82-2.83,5.33-4.78h0a2.57,2.57,0,0,1-2.11,1.09,3.5,3.5,0,0,1-3.44-3.59A3.77,3.77,0,0,1,281,48.07a3,3,0,0,1,1.91.64c0-.35,0-1.72-.08-2.6-2.13,0-8.61.26-9.45.31l0-1.35,4.67-.12Zm.39,7.19c0-.8,0-2.66-2.09-2.66a2.47,2.47,0,0,0-2.44,2.6,2.29,2.29,0,0,0,2.27,2.38A2.21,2.21,0,0,0,283.18,52"/></g></g></svg>