<?xml version="1.0" encoding="utf-8"?>
<!-- Generator: Adobe Illustrator 21.0.2, SVG Export Plug-In . SVG Version: 6.00 Build 0)  -->
<svg version="1.1" id="レイヤー_1" xmlns="http://www.w3.org/2000/svg" xmlns:xlink="http://www.w3.org/1999/xlink" x="0px"
	 y="0px" viewBox="0 0 354.9 66.4" style="enable-background:new 0 0 354.9 66.4;" xml:space="preserve">
<style type="text/css">
	.st0{clip-path:url(#SVGID_2_);fill:#F39A24;}
	.st1{clip-path:url(#SVGID_2_);fill:#F6B441;}
	.st2{fill:#3E3A39;}
</style>
<g>
	<g>
		<defs>
			<rect id="SVGID_1_" width="66.4" height="66.4"/>
		</defs>
		<clipPath id="SVGID_2_">
			<use xlink:href="#SVGID_1_"  style="overflow:visible;"/>
		</clipPath>
		<rect class="st0" width="66.4" height="66.4"/>
		<path class="st1" d="M-0.3,0C-18.9,0-34,14.9-34,33.2c0,18.3,15.1,33.2,33.7,33.2c18.6,0,33.7-14.9,33.7-33.2
			C33.3,14.9,18.3,0-0.3,0z M-0.3,50c-9.3,0-16.8-7.5-16.8-16.8c0-9.3,7.5-16.8,16.8-16.8c9.3,0,16.8,7.5,16.8,16.8
			C16.5,42.5,9,50-0.3,50z"/>
		<rect x="49.9" class="st1" width="16.6" height="66.4"/>
		<circle class="st1" cx="63.4" cy="117.7" r="32"/>
	</g>
	<g>
		<path class="st2" d="M91.9,29.8H79.3v-2.5l8.6-10.5h-8.3v-2.6h12.1v2.6l-8.3,10.4h8.6V29.8z"/>
		<path class="st2" d="M109,22.7H97.6v0.2c0,1.4,0.3,2.5,1,3.4c0.8,1,1.8,1.5,3.1,1.5c2.1,0,3.3-1.1,3.6-3.2h3.5
			c-0.3,1.8-1.1,3.2-2.5,4.2c-1.2,0.8-2.8,1.3-4.7,1.3c-2.4,0-4.3-0.7-5.6-2.1c-1.3-1.4-1.9-3.3-1.9-5.7c0-2.5,0.6-4.5,1.9-6
			c1.4-1.6,3.3-2.4,5.8-2.4C106.6,13.8,109,16.8,109,22.7z M105.5,20.5c0-1.3-0.3-2.3-0.9-3.1c-0.6-0.9-1.6-1.3-2.8-1.3
			c-1.2,0-2.2,0.4-2.9,1.3c-0.6,0.8-1,1.8-1.1,3.1H105.5z"/>
		<path class="st2" d="M121.6,17.4c-0.5-0.1-1-0.1-1.4-0.1c-2.8,0-4.1,1.5-4.1,4.6v7.9h-3.6c0-5.1,0-8.7,0-11l-0.1-4.6h3.5l0.1,2.6
			c1-1.8,2.6-2.7,4.8-2.7c0.2,0,0.5,0,0.8,0.1V17.4z"/>
		<path class="st2" d="M139.2,21.9c0,2.4-0.7,4.4-2.2,5.9c-1.5,1.5-3.4,2.3-5.9,2.3c-2.5,0-4.5-0.7-5.9-2.2c-1.4-1.5-2.1-3.5-2.1-6
			c0-2.4,0.7-4.4,2.2-5.9c1.5-1.5,3.4-2.2,5.9-2.2c2.5,0,4.4,0.7,5.9,2.2C138.5,17.4,139.2,19.4,139.2,21.9z M135.5,21.9
			c0-1.6-0.3-2.9-1-3.9c-0.8-1.2-1.9-1.9-3.4-1.9c-1.5,0-2.6,0.6-3.4,1.9c-0.6,1-1,2.3-1,3.9c0,1.6,0.3,2.9,0.9,4
			c0.8,1.3,1.9,1.9,3.4,1.9c1.5,0,2.6-0.6,3.4-1.9C135.2,24.8,135.5,23.5,135.5,21.9z"/>
		<path class="st2" d="M160.3,29.7c-1,0.1-2,0.2-2.8,0.2c-1.5,0-2.5-0.3-3.2-0.8c-0.8-0.6-1.1-1.6-1.1-3.1v-9.5h-3v-2.4h3v-2.8
			l3.6-1.5v4.3h3.5v2.4h-3.5v8.1c0,1,0.1,1.6,0.3,2c0.3,0.4,0.9,0.6,1.8,0.6c0.2,0,0.4,0,0.7-0.1c0.4-0.1,0.6-0.1,0.8-0.1V29.7z"/>
		<path class="st2" d="M178.3,21.9c0,2.4-0.7,4.4-2.2,5.9c-1.5,1.5-3.4,2.3-5.9,2.3c-2.5,0-4.5-0.7-5.9-2.2c-1.4-1.5-2.1-3.5-2.1-6
			c0-2.4,0.7-4.4,2.2-5.9c1.5-1.5,3.4-2.2,5.9-2.2c2.5,0,4.4,0.7,5.9,2.2C177.6,17.4,178.3,19.4,178.3,21.9z M174.6,21.9
			c0-1.6-0.3-2.9-1-3.9c-0.8-1.2-1.9-1.9-3.4-1.9c-1.5,0-2.6,0.6-3.4,1.9c-0.6,1-1,2.3-1,3.9c0,1.6,0.3,2.9,0.9,4
			c0.8,1.3,1.9,1.9,3.4,1.9c1.5,0,2.6-0.6,3.4-1.9C174.2,24.8,174.6,23.5,174.6,21.9z"/>
		<path class="st2" d="M206.1,21.9c0,2.4-0.7,4.4-2.2,5.9c-1.5,1.5-3.4,2.3-5.9,2.3c-2.5,0-4.5-0.7-5.9-2.2c-1.4-1.5-2.1-3.5-2.1-6
			c0-2.4,0.7-4.4,2.2-5.9c1.5-1.5,3.4-2.2,5.9-2.2c2.5,0,4.4,0.7,5.9,2.2C205.4,17.4,206.1,19.4,206.1,21.9z M202.4,21.9
			c0-1.6-0.3-2.9-1-3.9c-0.8-1.2-1.9-1.9-3.4-1.9c-1.5,0-2.6,0.6-3.4,1.9c-0.6,1-1,2.3-1,3.9c0,1.6,0.3,2.9,0.9,4
			c0.8,1.3,1.9,1.9,3.4,1.9c1.5,0,2.6-0.6,3.4-1.9C202.1,24.8,202.4,23.5,202.4,21.9z"/>
		<path class="st2" d="M223.9,29.8h-3.6v-8.5c0-1.5-0.2-2.6-0.5-3.3c-0.5-1-1.4-1.5-2.8-1.5c-2.6,0-3.8,1.9-3.8,5.7v7.5h-3.6V17.6
			c0-0.7,0-1.8-0.1-3.4h3.5l0.1,2.3c1.3-1.7,3-2.6,5.1-2.6c3.8,0,5.6,2,5.6,5.9V29.8z"/>
		<path class="st2" d="M242.3,22.7H231v0.2c0,1.4,0.3,2.5,1,3.4c0.8,1,1.8,1.5,3.1,1.5c2.1,0,3.3-1.1,3.6-3.2h3.5
			c-0.3,1.8-1.1,3.2-2.5,4.2c-1.2,0.8-2.8,1.3-4.7,1.3c-2.4,0-4.3-0.7-5.6-2.1c-1.3-1.4-1.9-3.3-1.9-5.7c0-2.5,0.6-4.5,1.9-6
			c1.4-1.6,3.3-2.4,5.8-2.4C239.9,13.8,242.3,16.8,242.3,22.7z M238.8,20.5c0-1.3-0.3-2.3-0.9-3.1c-0.6-0.9-1.6-1.3-2.8-1.3
			c-1.2,0-2.2,0.4-2.9,1.3c-0.6,0.8-1,1.8-1.1,3.1H238.8z"/>
		<path class="st2" d="M270.4,21.7c0,2.3-0.6,4.2-1.7,5.7c-1.3,1.7-3,2.6-5.3,2.6c-2,0-3.6-0.8-4.8-2.4v7.9h-3.6V18.3
			c0-1.4,0-2.8-0.1-4.1h3.5l0.1,2.5c1.2-1.9,2.9-2.8,5.2-2.8c2.2,0,3.9,0.8,5.1,2.4C269.9,17.7,270.4,19.5,270.4,21.7z M266.8,21.9
			c0-1.5-0.3-2.8-0.8-3.8c-0.7-1.3-1.7-1.9-3.1-1.9c-1.5,0-2.6,0.6-3.3,1.9c-0.6,1-0.9,2.3-0.9,3.9c0,1.5,0.3,2.8,0.8,3.8
			c0.7,1.3,1.7,1.9,3.1,1.9c1.5,0,2.6-0.6,3.3-1.9C266.5,24.8,266.8,23.5,266.8,21.9z"/>
		<path class="st2" d="M283.1,17.4c-0.5-0.1-1-0.1-1.4-0.1c-2.8,0-4.1,1.5-4.1,4.6v7.9H274c0-5.1,0-8.7,0-11l-0.1-4.6h3.5l0.1,2.6
			c1-1.8,2.6-2.7,4.8-2.7c0.2,0,0.5,0,0.8,0.1V17.4z"/>
		<path class="st2" d="M300.8,21.9c0,2.4-0.7,4.4-2.2,5.9c-1.5,1.5-3.4,2.3-5.9,2.3c-2.5,0-4.5-0.7-5.9-2.2c-1.4-1.5-2.1-3.5-2.1-6
			c0-2.4,0.7-4.4,2.2-5.9c1.5-1.5,3.4-2.2,5.9-2.2c2.5,0,4.4,0.7,5.9,2.2C300.1,17.4,300.8,19.4,300.8,21.9z M297,21.9
			c0-1.6-0.3-2.9-1-3.9c-0.8-1.2-1.9-1.9-3.4-1.9c-1.5,0-2.6,0.6-3.4,1.9c-0.6,1-1,2.3-1,3.9c0,1.6,0.3,2.9,0.9,4
			c0.8,1.3,1.9,1.9,3.4,1.9c1.5,0,2.6-0.6,3.4-1.9C296.7,24.8,297,23.5,297,21.9z"/>
		<path class="st2" d="M307.9,31.4c0,1.6-0.4,2.8-1.1,3.4c-0.7,0.5-1.8,0.8-3.5,0.8c-0.2,0-0.8,0-1.7-0.1v-2.5
			c0.5,0,0.8,0.1,1.1,0.1c0.8,0,1.3-0.2,1.5-0.6c0.1-0.3,0.2-0.9,0.2-1.8V14.2h3.6V31.4z M308,10.6h-3.8V7.4h3.8V10.6z"/>
		<path class="st2" d="M326.3,22.7h-11.3v0.2c0,1.4,0.3,2.5,1,3.4c0.8,1,1.8,1.5,3.1,1.5c2.1,0,3.3-1.1,3.6-3.2h3.5
			c-0.3,1.8-1.1,3.2-2.5,4.2c-1.2,0.8-2.8,1.3-4.7,1.3c-2.4,0-4.3-0.7-5.7-2.1c-1.3-1.4-1.9-3.3-1.9-5.7c0-2.5,0.6-4.5,1.9-6
			c1.4-1.6,3.3-2.4,5.8-2.4C323.9,13.8,326.3,16.8,326.3,22.7z M322.8,20.5c0-1.3-0.3-2.3-0.9-3.1c-0.6-0.9-1.6-1.3-2.8-1.3
			c-1.2,0-2.2,0.4-2.9,1.3c-0.6,0.8-1,1.8-1.1,3.1H322.8z"/>
		<path class="st2" d="M343.5,24.2c0,1.9-0.7,3.3-2.1,4.4c-1.3,1-2.9,1.5-5,1.5c-2.5,0-4.4-0.7-5.8-2.2c-1.3-1.4-2-3.4-2-5.8
			c0-2.5,0.7-4.5,2.1-6.1c1.4-1.5,3.4-2.3,5.9-2.3c1.9,0,3.5,0.5,4.7,1.4c1.3,1,2,2.4,2.1,4.3H340c-0.1-2.2-1.2-3.3-3.3-3.3
			c-1.5,0-2.6,0.6-3.4,1.9c-0.6,1-0.9,2.3-0.9,4c0,1.6,0.3,2.9,0.9,3.9c0.7,1.3,1.8,1.9,3.2,1.9c1,0,1.9-0.3,2.4-1
			c0.6-0.6,0.9-1.5,1-2.6H343.5z"/>
		<path class="st2" d="M354.9,29.7c-1,0.1-2,0.2-2.8,0.2c-1.5,0-2.5-0.3-3.2-0.8c-0.8-0.6-1.1-1.6-1.1-3.1v-9.5h-3v-2.4h3v-2.8
			l3.6-1.5v4.3h3.6v2.4h-3.6v8.1c0,1,0.1,1.6,0.3,2c0.3,0.4,0.9,0.6,1.8,0.6c0.2,0,0.4,0,0.7-0.1c0.4-0.1,0.6-0.1,0.8-0.1V29.7z"/>
	</g>
	<g>
		<g>
			<path class="st2" d="M126.8,51.1c0-5.9,2.3-8.8,5.5-8.8c3.2,0,5.2,3,5.2,8.5c0,5.9-2.1,8.9-5.4,8.9
				C129,59.7,126.8,56.7,126.8,51.1z M135.6,50.9c0-4.2-1-7.1-3.4-7.1c-2,0-3.4,2.7-3.4,7.1c0,4.4,1.2,7.3,3.4,7.3
				C134.6,58.2,135.6,55,135.6,50.9z"/>
			<path class="st2" d="M148.7,42.4c0,0.2-0.3,0.3-0.7,0.4c-0.2,1.1-0.6,3.1-0.8,4.4c0.9-0.1,1.8-0.2,2.3-0.2c3.1,0,4.2,2,4.2,5.1
				c0,1.5-0.3,3.4-0.7,4.6c-0.6,2.1-1.9,3.1-3.6,3.1c-0.8,0-1.9-0.3-3.7-1.8c0.2-0.4,0.4-0.8,0.6-1.3c1.6,1.3,2.5,1.6,3.1,1.6
				c1.2,0,1.9-0.7,2.3-2c0.4-1.3,0.7-3.2,0.7-4.2c0-2.3-0.8-3.7-2.8-3.7c-0.6,0-1.5,0.1-2.5,0.2c-1,4.2-2.2,7.8-4.2,11.1l-1.4-0.7
				c2-3.2,3.1-6.4,4.1-10.2c-1,0.1-2.5,0.3-3.6,0.5l-0.1-1.4c1-0.1,2.7-0.3,4.1-0.5c0.3-1.5,0.6-3.3,0.9-5.1L148.7,42.4z
				 M158.2,52.2c-0.7-3-2.6-5.5-4.6-7l1.1-0.9c2.2,1.5,4.3,4.4,5,7.3L158.2,52.2z"/>
			<path class="st2" d="M165.4,45.8c-0.1,0.2-0.2,0.3-0.5,0.3c-0.2,3-0.6,5.6-0.8,6h0c2-1.5,5.1-2.5,7.5-2.5c3.2,0,5.1,1.6,5.1,4.5
				c-0.1,3.8-3.2,5.5-11.1,5.8c-0.1-0.4-0.3-1-0.5-1.4c7.2-0.3,10-1.5,10.1-4.4c0-2-1.4-3.2-3.8-3.2c-3.8,0-7.2,2.3-7.8,3.3
				l-1.4-0.7c0.4-0.4,1.1-4.1,1.2-8.1L165.4,45.8z M165.8,41.8c2.8,0.3,5.9,1,8,1.8l-0.5,1.4c-2.1-0.9-5.2-1.5-7.9-1.9L165.8,41.8z"
				/>
			<path class="st2" d="M184.2,59.5V44.3h0l-2.8,1.6l-0.5-1.4l3.5-2h1.6v16.9H184.2z"/>
			<path class="st2" d="M209.2,50.2c0,0-0.1,0-0.1,0c-0.1,0-0.2-0.1-0.3-0.1c-1.6,0.5-3.8,1.4-5.5,2.1c0,0.5,0.1,1,0.1,1.6
				c0,0.7,0,1.4-0.1,2.2l-1.5,0.1c0.1-0.7,0.1-1.7,0.1-2.5c0-0.3,0-0.6,0-0.8c-2.3,1.1-4.2,2.5-4.2,3.7c0,1.2,1.4,1.8,4.2,1.8
				c2,0,3.8,0,5.1-0.2l0,1.4c-1.2,0.1-3.1,0.2-5.2,0.2c-3.9,0-5.7-0.9-5.7-3c0-1.8,2.4-3.5,5.4-5.1c-0.1-1.3-0.7-1.9-1.5-1.9
				c-1.5,0-3.1,0.8-4.9,2.9c-0.6,0.6-1.4,1.4-2.3,2.2l-1-1c2-1.8,4-3.5,5.2-7.6l-1.1,0h-3.4v-1.3c1.3,0,2.7,0,3.5,0l1.4,0
				c0.2-0.9,0.4-1.8,0.6-2.9l2,0.2c0,0.2-0.2,0.3-0.5,0.4c-0.1,0.8-0.3,1.5-0.5,2.3c1.4,0,4.4-0.3,7-1.2l0.2,1.4
				c-2.6,0.8-5.7,1.1-7.7,1.1c-0.5,1.5-1,2.8-1.5,3.5h0c0.9-0.8,2.3-1.3,3.3-1.3c1.4,0,2.3,1,2.5,2.7c1.7-0.8,3.9-1.6,5.5-2.3
				L209.2,50.2z"/>
			<path class="st2" d="M221.4,58.4h8.6v1.4h-18.5v-1.4h8.5v-5.5h-6.3v-1.3h6.3v-4.7h-5c-0.7,1.5-1.6,2.8-2.5,3.8
				c-0.3-0.2-0.8-0.6-1.1-0.8c1.7-1.8,3.1-4.9,4-8l1.8,0.5c-0.1,0.1-0.2,0.2-0.5,0.2c-0.3,1-0.7,2-1.1,3h4.4v-4.1l1.8,0.1
				c0,0.1-0.1,0.2-0.4,0.3v3.7h7.6v1.4h-7.6v4.7h6.9v1.3h-6.9V58.4z"/>
			<path class="st2" d="M248.7,47.3c-0.1,0.2-0.3,0.4-0.6,0.4c-0.2,1.4-0.6,2.9-0.9,4.2c1.1,0.5,2.3,1,3.4,1.6l-0.7,1.4
				c-1.1-0.6-2.2-1.1-3.2-1.5c-1,3-2.4,5.1-4.6,6.5c-0.3-0.3-0.8-0.6-1.2-0.9c2.2-1.4,3.5-3.3,4.4-6.3c-2.1-0.8-4-1.4-5.5-1.5
				c-1.4,5.2-2.7,6.5-5.1,6.5s-2.9-2-2.9-3.2c0-3.2,3.3-4.7,7-4.7c0.4-1.6,0.8-3.6,1.1-5.8c-1,0.1-4.2,0.3-5.8,0.4
				c-0.1,0.1-0.2,0.2-0.4,0.3l-0.2-1.7c1.8-0.1,5.6-0.3,6.8-0.4c0.2,0,0.3-0.1,0.5-0.2l1.3,0.8c-0.1,0.2-0.3,0.2-0.5,0.3
				c-0.3,2.3-0.8,4.6-1.3,6.4c1.6,0.1,3.5,0.7,5.5,1.5c0.3-1.2,0.7-2.8,0.9-4.5L248.7,47.3z M238.6,51.1c-3,0-5.3,1.2-5.3,3.4
				c0,1.1,0.6,1.9,1.5,1.9C236.3,56.4,237.3,55.9,238.6,51.1z"/>
			<path class="st2" d="M268.4,51.8l1.8,0.1c0,0.1-0.1,0.2-0.4,0.3v8.2h-1.4v-1.3h-13.3v1.4h-1.4v-8.6l1.8,0.1
				c0,0.2-0.1,0.3-0.4,0.3v5.5h5.8v-7.3h-6.4v-7.1l1.8,0.1c0,0.1-0.1,0.2-0.4,0.3v5.3h5v-7.6l1.8,0.1c0,0.1-0.1,0.2-0.4,0.3v7.2h5.2
				v-5.8l1.8,0.1c0,0.1-0.1,0.2-0.4,0.3v6.7h-6.7v7.3h6.1V51.8z"/>
			<path class="st2" d="M282.8,44.8c0-0.5-0.1-2.7-0.1-3.2l2.1,0.1c0,0.2-0.2,0.4-0.5,0.4c0,0.2,0,0.5,0,2.6
				c2.5-0.1,5.2-0.1,6.7-0.2V46c-1.7,0-4.2,0-6.7,0.1c0,1.6,0.1,3.1,0.1,4.2c0.2,0.7,0.2,1.3,0.2,2.2c0,0.7-0.1,1.4-0.2,2
				c-0.5,2.4-2.3,4.5-5.9,5.9c-0.3-0.3-0.7-0.9-1-1.2c3.1-1.1,4.8-2.8,5.3-4.8h0c-0.4,0.6-1.2,1.1-2.1,1.1c-1.8,0-3.4-1.5-3.4-3.6
				c0-2.2,1.7-3.8,3.7-3.8c0.7,0,1.5,0.3,1.9,0.6c0-0.3,0-1.7-0.1-2.6c-2.1,0-8.6,0.3-9.4,0.3l0-1.4l4.7-0.1L282.8,44.8z M283.2,52
				c0-0.8,0-2.7-2.1-2.7c-1.4,0-2.4,1.1-2.4,2.6c0,1.4,1.1,2.4,2.3,2.4C282.4,54.3,283.2,53.1,283.2,52z"/>
		</g>
	</g>
</g>
</svg>
