<svg id="レイヤー_1" data-name="レイヤー 1" xmlns="http://www.w3.org/2000/svg" xmlns:xlink="http://www.w3.org/1999/xlink" viewBox="0 0 222.57 228.26"><defs><style>.cls-1{fill:none;}.cls-2{clip-path:url(#clip-path);}.cls-3{fill:#fff;}</style><clipPath id="clip-path" transform="translate(0 0)"><rect class="cls-1" width="222.57" height="228.26"/></clipPath></defs><title>111</title><g class="cls-2"><path class="cls-3" d="M37.73,200.94a104.59,104.59,0,0,1-25.88-34.49,138.48,138.48,0,0,1-9.7-29.07,107.06,107.06,0,0,1-2-26.92c.9-20.69,5.56-40.2,16.8-58.37A108.85,108.85,0,0,1,51,17C61.82,10,73.76,4.39,87,2.77,95.65,1.7,104.39-.24,113,0c25.75.79,49.42,8.2,69.52,25,11,9.17,20.43,19.8,26.91,32.56,6.61,13,12.65,26.41,12.78,41.49.08,10.62.78,21.31-.18,31.84-1.18,13.06-6.15,25.18-12.16,36.83-13.42,26-34.22,43.32-61.51,53.54A105.81,105.81,0,0,1,101,227.8c-12.53-1.17-25-4-36.29-9.88-9.28-4.86-17.85-11.11-27-17M64.3,174.86c-4.13,4.78-8.24,9.59-12.41,14.34-2.77,3.15-1.05,5.82,1.4,7.51a111.22,111.22,0,0,0,27.23,14.24c14.73,5,29.47,6.88,44.59,4.25,13-2.26,25.59-6.17,36.73-13.56,11.8-7.83,22.51-16.78,31-28.39,8.78-12,13.83-25.51,17.54-39.51,3-11.43,3.51-23.26.18-34.89-2.53-8.84-4.39-18-8.14-26.33-3.54-7.83-9.1-14.76-13.9-22-1.83-2.77-5.32-3-7.1-1.25-3.93,3.93-7.09,8.65-10.46,13.12-1.18,1.57-1.76,3.72-3.18,5-5.89,5.21-12.24,9.91-18,15.29a189.14,189.14,0,0,0-16.13,17.2,18.18,18.18,0,0,0-3.9,9.48c-.58,7-.29,14.06-.15,21.1.15,7.61-2.18,14.44-5.8,21-5.5,9.95-17.16,10.56-23.51,1.21-.89-1.31-2.35-2.24-3.27-3.53-2.89-4-5.39-2.81-8.21.18-8,8.44-16,16.75-24.57,25.6m.49-151.63C52.31,30.82,41,39.51,32.25,51.62,17.6,71.82,10,93.72,11.52,118.85c.67,11.37,2.49,22.34,7,32.72,4.41,10.09,9.07,20.11,17.21,28,1.55,1.51,2.19,1.39,3.53-.09,4.74-5.23,9.86-10.12,14.36-15.55a60.31,60.31,0,0,0,8.58-13c3.44-7.49,6-15.36,8.89-23.12,1.6-4.34,4.83-6,9.16-6.06a31.76,31.76,0,0,1,4.51.61c-1,1.55-1.55,3.87-2.94,4.52-4.15,2-5.67,5.6-6.72,9.42s-1.39,7.88-2,11.84c-.16.94-.33,1.88-.5,2.81a11.34,11.34,0,0,0,1.68-2.68C76.46,140.59,81,134.57,86.6,129c3-3,5.24-6.48,5.23-11.51,0-5.77,2.08-11.51,2.54-17.32.21-2.72-.44-6.32-2.15-8.22-6.74-7.5-14.62-13-25.6-12.21-5.56.39-10.44-2.36-14.48-6-1.21-1.08-1-3.71-1.49-5.64,1.56-.32,3.17-1.06,4.66-.85s2.56,1.61,4,2.11a108.48,108.48,0,0,0,11.19,3.57c6.33,1.51,13.32.49,18.65,5.7,2.18,2.14,5.07.57,5.4-2.59.12-1.12-.29-2.39.08-3.39C95.52,70.1,96.3,66,98,65.58c3-.85,7.3-.51,9.88,1.16,2.73,1.76,3.79.9,4.88-.87,2.22-3.6,5.52-1.81,7.84-1.14,1.75.51,3.33,3.24,4.06,5.3,1.22,3.42,1.22,7.3,2.62,10.62,1.87,4.46,1.72,7.67-2.17,11.17-6.75,6.08-13,12.74-19.37,19.22a31.29,31.29,0,0,0-3.76,4.78,7,7,0,0,0-.48,2.61,10.64,10.64,0,0,0,2-1.37q13-13.86,25.84-27.8c.55-.6,1.22-1.77,1-2.29-2.75-6.22,2-9.28,5.39-12.75,9.55-9.71,19.29-19.23,28.82-29,2-2.07,3.17-5.05,5.29-7,2.94-2.69,1.08-4.59-.71-6.1a55.54,55.54,0,0,0-9.44-6.57C139.39,14.76,117.89,9.66,94.88,13.55a106.33,106.33,0,0,0-30.09,9.68" transform="translate(0 0)"/><path class="cls-3" d="M139.63,120c10.62-1.35,12.49,3.44,17.39,13.9,3.4,7.25,5.24,15.43,11.88,21,1,.85,1.16,4.63.32,5.3-1.29,1-4.42,1.38-5.65.48a19.39,19.39,0,0,1-5.57-6.83c-3-6-5.26-12.47-8.47-18.4a32.89,32.89,0,0,0-7.95-9.76c-2.16-1.75-2.2-3.35-2-5.7" transform="translate(0 0)"/><path class="cls-3" d="M146.45,113.67c-2.93-.41-5.63-.49-8.31-.76-2.06-.2-3.81-.61-3.72-3.53s1.6-3.56,4-3.26c7.23.93,14.5,1.65,21.62,3.1,2,.4,3.65,3,5.18,4.75a79.24,79.24,0,0,1,6.82,8.86c.82,1.29,1.32,4.06.62,4.74-1.12,1.06-4,1.82-5,1.11-2.59-1.76-5.33-4-6.63-6.78-3-6.33-7.78-8.46-14.54-8.23" transform="translate(0 0)"/><path class="cls-3" d="M63.57,122c-3.11,3.76-5.9,7.34-8.9,10.73a3.41,3.41,0,0,1-3,.6,2.77,2.77,0,0,1-.92-2.56c1.24-3,2.79-6,4.24-8.94.07-.14.28-.21.33-.35,3.93-10.47,13.39-11,22.34-12.37a72.44,72.44,0,0,1,9.32-.91c1.21,0,2.44.91,3.66,1.4-1.13,1.45-2,3.81-3.43,4.21-6,1.67-12.23,2.55-18.25,4.18-1.91.52-3.44,2.48-5.38,4" transform="translate(0 0)"/></g></svg>