<svg id="レイヤー_1" data-name="レイヤー 1" xmlns="http://www.w3.org/2000/svg" xmlns:xlink="http://www.w3.org/1999/xlink" viewBox="0 0 228 228"><defs><style>.cls-1,.cls-4,.cls-5{fill:none;}.cls-2{clip-path:url(#clip-path);}.cls-3{fill:#5e5c53;}.cls-4,.cls-5{stroke:#5e5c53;stroke-miterlimit:10;}.cls-4{stroke-width:4px;}</style><clipPath id="clip-path"><rect class="cls-1" width="228" height="228"/></clipPath></defs><title>4</title><g class="cls-2"><path class="cls-3" d="M114,9A105,105,0,1,1,9,114,105.12,105.12,0,0,1,114,9m0-9A114,114,0,1,0,228,114,114,114,0,0,0,114,0"/><path class="cls-4" d="M178.68,125.73q-64.64.11-129.28,0c-2.89,0-5,.74-6.26,3.42v8.31a5.8,5.8,0,0,0,1,1.62c5.26,4.11,6.35,10.36,8.38,16.13.83,2.34,1.52,4.74,2.37,7.07,1.41,3.89,3.8,5.57,7.93,5.57q16.48,0,33,0c4.18,0,6.74-1.87,7.85-6,1.84-6.75,3.55-13.54,5.27-20.33.78-3.08,2.18-4.32,5.13-4.32s4.34,1.24,5.13,4.34q2.49,9.91,5.05,19.81c1.17,4.47,3.78,6.46,8.37,6.46q16.19,0,32.4,0c4.54,0,6.78-1.59,8.25-5.87A78.09,78.09,0,0,0,176,153.6c1.4-6.31,4.75-11.44,9-16.14v-8.31C183.69,126.47,181.57,125.72,178.68,125.73ZM97,141.57c-.76,4.44-1.62,8.86-2.51,13.27a4.48,4.48,0,0,1-4.9,3.91c-3.6,0-7.19,0-10.78,0-3.41,0-6.82,0-10.23,0a4.58,4.58,0,0,1-5-3.81c-1.11-4.36-2.27-8.72-3.28-13.1-.74-3.19.74-5,4-5q14.37-.06,28.74,0C96.23,136.81,97.57,138.4,97,141.57Zm34.69,2.93c-.63-2.05-1.74-4.24-.11-6.28,2.08-2.6,5-1.08,8.14-1.45Zm3.67,3.58c2.8-2.8,5.74-5.5,8.37-8.45,1.94-2.18,4-3.29,7-2.87a27.34,27.34,0,0,0,3.81,0L134.4,156.49C132.21,153,132.37,151.11,135.39,148.08Zm21.52,10.46,8.52-8.63C164.47,157.68,163.28,159.64,156.92,158.54Zm9.86-17.68c-5.66,5.55-11,11.5-17,16.61-2,1.66-5.71,1.21-8.64,1.73l-.39-1.27c6.8-6.74,13.5-13.59,20.5-20.11,1-.92,3.58-.67,5.21-.19C167.88,138,168.21,139.45,166.78,140.86Z"/><path class="cls-3" d="M83,69.46c-1.2.48-2.39,1-3.59,1.44A8.27,8.27,0,0,0,74,77.4c-2.72,13.45-5.53,26.88-8.18,40.35-.39,2-1.15,2.51-3.07,2.46-4.42-.14-8.84,0-13.63,0,1.94-6.42,3.78-12.57,5.66-18.71,3.32-10.83,6.73-21.63,10-32.48a10.77,10.77,0,0,1,5.47-7c4.1-2.07,8.27-4,12.55-5.7,2.93-1.13,5.55.93,5.79,4.07.47,6.12,0,6.82-5.61,9.07"/><path class="cls-3" d="M178.86,120.16c-5.05,0-9.76-.06-14.46,0-1.7,0-1.87-1-2.12-2.22-2.72-13.46-5.51-26.89-8.19-40.35a8.48,8.48,0,0,0-5.47-6.74l-3.33-1.33c-5.84-2.33-6.13-2.78-5.81-9,.18-3.46,2.8-5.32,6.11-4.2,2.18.73,4.28,1.68,6.44,2.51,6.61,2.53,10.7,6.81,12.64,14,4.1,15.29,9.09,30.35,13.71,45.49.13.43.24.86.48,1.72"/><path class="cls-3" d="M78.83,158.75c-3.41,0-6.82,0-10.22,0a4.58,4.58,0,0,1-5-3.81c-1.11-4.36-2.26-8.72-3.28-13.1-.74-3.19.74-5,4-5q14.37-.06,28.74,0c3.17,0,4.51,1.6,4,4.77-.76,4.44-1.63,8.86-2.52,13.28a4.48,4.48,0,0,1-4.9,3.91c-3.59,0-7.18,0-10.78,0"/><path class="cls-5" d="M140.76,157.92c6.79-6.75,13.49-13.59,20.49-20.12,1-.92,3.59-.67,5.21-.18,1.42.42,1.75,1.84.32,3.24-5.66,5.54-11,11.5-17,16.6-2,1.66-5.71,1.21-8.64,1.73Z"/><path class="cls-5" d="M134.39,156.49c-2.19-3.45-2-5.38,1-8.41,2.8-2.81,5.74-5.5,8.37-8.45,1.94-2.18,4-3.29,7-2.87a27.24,27.24,0,0,0,3.82,0Z"/><path class="cls-5" d="M165.44,149.91c-1,7.77-2.16,9.73-8.52,8.62Z"/><path class="cls-5" d="M139.75,136.77l-8,7.73c-.63-2.05-1.74-4.24-.11-6.28C133.69,135.62,136.61,137.14,139.75,136.77Z"/></g></svg>