<svg id="レイヤー_1" data-name="レイヤー 1" xmlns="http://www.w3.org/2000/svg" xmlns:xlink="http://www.w3.org/1999/xlink" viewBox="0 0 228 228"><defs><style>.cls-1{fill:none;}.cls-2{clip-path:url(#clip-path);}.cls-3{fill:#fff;}</style><clipPath id="clip-path"><rect class="cls-1" width="228" height="228"/></clipPath></defs><title>222</title><g class="cls-2"><path class="cls-3" d="M114,9A105,105,0,1,1,9,114,105.12,105.12,0,0,1,114,9m0-9A114,114,0,1,0,228,114,114,114,0,0,0,114,0"/><path class="cls-3" d="M74.45,71.1A62.79,62.79,0,0,0,66.07,103c.07,10.2,4.63,18.24,13.18,23.26a46.14,46.14,0,0,0,16.67,5.64,22.5,22.5,0,0,1-2,2.21c-2,1.94-4.15,3.79-6.4,5.74-1,.84-2,1.69-2.95,2.57L81,145.47l3.6,3,.76.63c-4.35,3.9-9.9,5.66-15.72,7.51l-5.52,1.75,3.59,4.54a15.59,15.59,0,0,0,11,5.93,33.92,33.92,0,0,0,3.48.18,32.39,32.39,0,0,0,19.95-7,81.38,81.38,0,0,0,26.66,5.68,55.31,55.31,0,0,1-30.75,12.88,7.31,7.31,0,0,0-1.82.44H88.88l-.88-.15c-.9-.15-1.83-.32-2.78-.45-30.79-4.25-52.08-31.54-48.46-62.13C39.47,95.35,52.15,79.48,74.45,71.1m8.47-6.33H81.51c-2.6.77-5.26,1.41-7.81,2.35C49.94,75.82,35.76,92.65,32.79,117.8,28.9,150.68,52,179.86,84.68,184.37c1.3.18,2.58.42,3.87.63H97a7.82,7.82,0,0,1,1.52-.46,59.4,59.4,0,0,0,37.78-18.31c.72-.74,1.31-1.59,2.26-2.76l-1.56,0-.6,0q-2.74.24-5.44.23a77.16,77.16,0,0,1-28.23-5.8,1.49,1.49,0,0,0-.55-.09,3.59,3.59,0,0,0-2,.69A28.49,28.49,0,0,1,82.27,165a29.4,29.4,0,0,1-3.07-.16,11.59,11.59,0,0,1-8.31-4.43c7.7-2.45,15-4.87,20.31-11.71l-4-3.32c3.31-2.92,6.5-5.56,9.47-8.43a24.77,24.77,0,0,0,4.21-5.26c1.29-2.21.56-3.18-2.05-3.48a43.91,43.91,0,0,1-17.55-5.44c-7.57-4.44-11.15-11.24-11.21-19.83C70,89.69,74.11,77.75,81.81,67a14.83,14.83,0,0,0,1.1-2.25"/><path class="cls-3" d="M184.36,72.95c-2.73,3.4-5.44,6.83-8.33,10.46h11.16v6.66H164.72a3.59,3.59,0,0,1,.69-3.45c3.42-4.2,6.77-8.46,10.14-12.7.26-.32.49-.67.91-1.26H164.8V66h22.8v3.12c-1.08,1.27-2.2,2.52-3.24,3.83"/><path class="cls-3" d="M128.71,125.57H136V130H121v-1.82c.08,0,.19,0,.23-.07q3.72-4.65,7.42-9.32c.07-.09.06-.23.12-.49H121v-4.42h15.17a3.07,3.07,0,0,1-.63,3c-2.05,2.46-4,5-6,7.5-.26.32-.48.67-.85,1.21"/><path class="cls-3" d="M150,105.52h9.32v5.36H140.68a3.24,3.24,0,0,1,.77-3.08c2.78-3.38,5.47-6.83,8.19-10.25.21-.27.4-.56.75-1h-9.64V91h18.77a3.56,3.56,0,0,1-.63,3.31c-2.7,3.27-5.3,6.63-7.94,9.95-.24.3-.44.62-.88,1.23"/></g></svg>