<svg id="レイヤー_1" data-name="レイヤー 1" xmlns="http://www.w3.org/2000/svg" xmlns:xlink="http://www.w3.org/1999/xlink" viewBox="0 0 228 228"><defs><style>.cls-1,.cls-4{fill:none;}.cls-2{clip-path:url(#clip-path);}.cls-3,.cls-5{fill:#fff;}.cls-4,.cls-5{stroke:#fff;stroke-miterlimit:10;}.cls-4{stroke-width:4px;}</style><clipPath id="clip-path"><rect class="cls-1" width="228" height="228"/></clipPath></defs><title>33333</title><g class="cls-2"><path class="cls-3" d="M114,9A105,105,0,1,1,9,114,105.12,105.12,0,0,1,114,9m0-9A114,114,0,1,0,228,114,114,114,0,0,0,114,0"/><path class="cls-3" d="M54.79,120.07c.45-.14.75-.13.9-.28,2.64-2.62,5.31-5.22,7.84-8a2.1,2.1,0,0,0-.38-2,2.21,2.21,0,0,0-2.13.05q-3.76,3.46-7.23,7.22a2.9,2.9,0,0,0-.18,2.21c.08.36.84.57,1.18.78m17.63.84h0a34.7,34.7,0,0,0,.08,5.11c.1.68,1.11,1.23,1.71,1.84.52-.59,1.46-1.16,1.49-1.77.16-3.25.18-6.51,0-9.76,0-.69-1-1.34-1.57-2-.58.73-1.5,1.4-1.66,2.21a23.31,23.31,0,0,0-.08,4.38"/><path class="cls-4" d="M178.85,109.47c-1.27,3.48-3.14,6.38-6.84,7.76-.54.2-.91,1.21-1.12,1.92-3.81,12.45-7.61,24.9-11.3,37.38a5.09,5.09,0,0,0,.45,3.39c3.74,7.39-1,16-9.28,16.13-18.39.22-36.78.16-55.18,0A10.9,10.9,0,0,1,85,165.12,11,11,0,0,1,96.2,154.27q25.35,0,50.71,0c1.85,0,2.72-.45,3.28-2.37,3.49-11.9,7.19-23.75,10.69-35.65.32-1.08-.15-2.42-.38-3.61-.31-1.61-1.13-3.21-1-4.78a5.76,5.76,0,0,0-1.87-4.59Q141.46,86.19,125.39,69c-2.14-2.28-4.71-2.24-7-.09-1.52,1.44-3.21,2.71-5.18,4.34,2.78,2.79,4.89,5.09,7.2,7.15,1.55,1.38,1.61,2.42.46,4.16-7.72,11.68-15.33,23.43-23,35.16-.18.28-.41.54-.29.38-3.6-3.3-7.22-6.55-10.76-9.89-1.4-1.33-2.49-2.32-4.88-2-7.48.93-13-5.24-11.82-12.61a4.21,4.21,0,0,0-.91-3.11c-3.62-3.9-7.4-7.64-11.29-11.6L74.42,70.58c6.82-4.28,13.67-8.51,20.43-12.89,1.59-1,2.45-.83,3.7.52,2.55,2.74,5.34,5.25,8.24,8.06,1-1,1.87-2.1,2.84-3.1,1.58-1.63,2.74-3.14,2.7-5.82-.09-5.21,4.72-9.41,9.81-9.25a9.48,9.48,0,0,1,9.33,9.71,6.08,6.08,0,0,0,2,4.78Q149.72,79.77,165.88,97c.51.54,1.25,1.25,1.86,1.22,5.92-.29,9.23,2.88,11.11,8.08ZM169,112.73a4.72,4.72,0,0,0,4.81-4.79,4.78,4.78,0,0,0-4.78-4.85,5,5,0,0,0-4.9,4.82A4.92,4.92,0,0,0,169,112.73Zm-47.1-50a5.12,5.12,0,0,0,5-4.79A4.88,4.88,0,0,0,122,53.05a4.69,4.69,0,0,0-4.89,4.7A4.91,4.91,0,0,0,121.85,62.72Z"/><path class="cls-5" d="M45,98.11c2.27-.29,4.54-.67,6.82-.85a25.39,25.39,0,0,1,5.34.08A2.64,2.64,0,0,1,58.81,99c.11.39-.84,1.56-1.34,1.58-3.63.13-7.28.1-10.91,0-.53,0-1-.68-1.55-1Z"/><path class="cls-5" d="M54.79,120.07c-.34-.21-1.1-.42-1.18-.78a2.9,2.9,0,0,1,.18-2.21q3.47-3.75,7.23-7.22a2.21,2.21,0,0,1,2.13-.05,2.11,2.11,0,0,1,.38,2c-2.53,2.73-5.2,5.33-7.84,8-.15.15-.45.15-.9.28"/><path class="cls-5" d="M72.42,120.91a23.31,23.31,0,0,1,.08-4.38c.16-.81,1.08-1.48,1.66-2.21.55.67,1.54,1.32,1.57,2,.16,3.25.14,6.51,0,9.76,0,.61-1,1.18-1.49,1.77-.6-.61-1.61-1.15-1.71-1.84a34.7,34.7,0,0,1-.08-5.11Z"/></g></svg>